<mxfile host="app.diagrams.net" modified="2021-05-18T08:02:39.865Z" agent="5.0 (Windows NT 6.1; Win64; x64) AppleWebKit/537.36 (KHTML, like Gecko) Chrome/83.0.4103.116 Safari/537.36" etag="xfXr55KNUQUrxR64d7nX" version="14.6.13" type="github">
  <diagram id="3GuXjz2IXrO3tX7AWPHp" name="Page-1">
    <mxGraphModel dx="1185" dy="1923" grid="1" gridSize="10" guides="1" tooltips="1" connect="1" arrows="1" fold="1" page="1" pageScale="1" pageWidth="827" pageHeight="1169" math="0" shadow="0">
      <root>
        <mxCell id="0" />
        <mxCell id="1" parent="0" />
        <mxCell id="lNNQF_8TXbGnCq8DfVAC-114" value="" style="rounded=0;whiteSpace=wrap;html=1;strokeColor=#3333FF;strokeWidth=2;" vertex="1" parent="1">
          <mxGeometry x="204" y="-154" width="178" height="265" as="geometry" />
        </mxCell>
        <mxCell id="lNNQF_8TXbGnCq8DfVAC-103" value="" style="rounded=0;whiteSpace=wrap;html=1;strokeColor=#FF33FF;strokeWidth=2;" vertex="1" parent="1">
          <mxGeometry x="209" y="-397.5" width="178" height="215.5" as="geometry" />
        </mxCell>
        <mxCell id="lNNQF_8TXbGnCq8DfVAC-102" value="" style="rounded=0;whiteSpace=wrap;html=1;strokeColor=#FF3333;strokeWidth=2;" vertex="1" parent="1">
          <mxGeometry x="212" y="-533" width="178" height="121" as="geometry" />
        </mxCell>
        <mxCell id="lNNQF_8TXbGnCq8DfVAC-21" style="edgeStyle=orthogonalEdgeStyle;rounded=0;orthogonalLoop=1;jettySize=auto;html=1;entryX=0;entryY=0.5;entryDx=0;entryDy=0;exitX=0.997;exitY=0.179;exitDx=0;exitDy=0;exitPerimeter=0;" edge="1" parent="1" target="lNNQF_8TXbGnCq8DfVAC-20">
          <mxGeometry relative="1" as="geometry">
            <mxPoint x="637.7" y="-477.94000000000005" as="sourcePoint" />
          </mxGeometry>
        </mxCell>
        <mxCell id="lNNQF_8TXbGnCq8DfVAC-22" value="sdev_ufs_device" style="edgeLabel;html=1;align=center;verticalAlign=middle;resizable=0;points=[];" vertex="1" connectable="0" parent="lNNQF_8TXbGnCq8DfVAC-21">
          <mxGeometry x="-0.7434" y="-2" relative="1" as="geometry">
            <mxPoint x="37" y="-11" as="offset" />
          </mxGeometry>
        </mxCell>
        <mxCell id="lNNQF_8TXbGnCq8DfVAC-1" value="" style="rounded=0;whiteSpace=wrap;html=1;" vertex="1" parent="1">
          <mxGeometry x="538" y="-536" width="100" height="140" as="geometry" />
        </mxCell>
        <mxCell id="lNNQF_8TXbGnCq8DfVAC-2" value="" style="rounded=0;whiteSpace=wrap;html=1;" vertex="1" parent="1">
          <mxGeometry x="217" y="-530" width="170" height="30" as="geometry" />
        </mxCell>
        <mxCell id="lNNQF_8TXbGnCq8DfVAC-3" value="" style="rounded=0;whiteSpace=wrap;html=1;" vertex="1" parent="1">
          <mxGeometry x="215" y="-394" width="170" height="64" as="geometry" />
        </mxCell>
        <mxCell id="lNNQF_8TXbGnCq8DfVAC-4" value="" style="rounded=0;whiteSpace=wrap;html=1;" vertex="1" parent="1">
          <mxGeometry x="208" y="-150" width="170" height="80" as="geometry" />
        </mxCell>
        <mxCell id="lNNQF_8TXbGnCq8DfVAC-5" value="" style="edgeStyle=elbowEdgeStyle;elbow=horizontal;endArrow=classic;html=1;exitX=0;exitY=0.5;exitDx=0;exitDy=0;entryX=1;entryY=0;entryDx=0;entryDy=0;" edge="1" parent="1" target="lNNQF_8TXbGnCq8DfVAC-2">
          <mxGeometry width="50" height="50" relative="1" as="geometry">
            <mxPoint x="538" y="-480" as="sourcePoint" />
            <mxPoint x="437" y="-535" as="targetPoint" />
            <Array as="points">
              <mxPoint x="507" y="-510" />
            </Array>
          </mxGeometry>
        </mxCell>
        <mxCell id="lNNQF_8TXbGnCq8DfVAC-12" value="utrdl_base_addr" style="edgeLabel;html=1;align=center;verticalAlign=middle;resizable=0;points=[];" vertex="1" connectable="0" parent="lNNQF_8TXbGnCq8DfVAC-5">
          <mxGeometry x="0.3415" y="2" relative="1" as="geometry">
            <mxPoint x="7" y="-12" as="offset" />
          </mxGeometry>
        </mxCell>
        <mxCell id="lNNQF_8TXbGnCq8DfVAC-68" value="utrdl_dma_addr" style="edgeLabel;html=1;align=center;verticalAlign=middle;resizable=0;points=[];" vertex="1" connectable="0" parent="lNNQF_8TXbGnCq8DfVAC-5">
          <mxGeometry x="0.3266" relative="1" as="geometry">
            <mxPoint x="4" y="7" as="offset" />
          </mxGeometry>
        </mxCell>
        <mxCell id="lNNQF_8TXbGnCq8DfVAC-9" value="" style="edgeStyle=elbowEdgeStyle;elbow=horizontal;endArrow=classic;html=1;exitX=0;exitY=0.5;exitDx=0;exitDy=0;entryX=1;entryY=0;entryDx=0;entryDy=0;" edge="1" parent="1" target="lNNQF_8TXbGnCq8DfVAC-4">
          <mxGeometry width="50" height="50" relative="1" as="geometry">
            <mxPoint x="538" y="-480" as="sourcePoint" />
            <mxPoint x="647" y="-390" as="targetPoint" />
            <Array as="points">
              <mxPoint x="507" y="-470" />
            </Array>
          </mxGeometry>
        </mxCell>
        <mxCell id="lNNQF_8TXbGnCq8DfVAC-13" value="utmrdl_base_addr" style="edgeLabel;html=1;align=center;verticalAlign=middle;resizable=0;points=[];" vertex="1" connectable="0" parent="lNNQF_8TXbGnCq8DfVAC-9">
          <mxGeometry x="0.4518" y="-3" relative="1" as="geometry">
            <mxPoint x="-59" y="-7" as="offset" />
          </mxGeometry>
        </mxCell>
        <mxCell id="lNNQF_8TXbGnCq8DfVAC-10" value="" style="edgeStyle=elbowEdgeStyle;elbow=horizontal;endArrow=classic;html=1;entryX=1;entryY=0;entryDx=0;entryDy=0;exitX=-0.01;exitY=0.4;exitDx=0;exitDy=0;exitPerimeter=0;" edge="1" parent="1" source="lNNQF_8TXbGnCq8DfVAC-1" target="lNNQF_8TXbGnCq8DfVAC-3">
          <mxGeometry width="50" height="50" relative="1" as="geometry">
            <mxPoint x="517" y="-480" as="sourcePoint" />
            <mxPoint x="547" y="-260" as="targetPoint" />
            <Array as="points" />
          </mxGeometry>
        </mxCell>
        <mxCell id="lNNQF_8TXbGnCq8DfVAC-11" value="ucdl_base_addr" style="edgeLabel;html=1;align=center;verticalAlign=middle;resizable=0;points=[];" vertex="1" connectable="0" parent="lNNQF_8TXbGnCq8DfVAC-10">
          <mxGeometry x="0.2754" y="1" relative="1" as="geometry">
            <mxPoint x="-18" y="-3" as="offset" />
          </mxGeometry>
        </mxCell>
        <mxCell id="lNNQF_8TXbGnCq8DfVAC-14" value="Scsi_Host" style="rounded=0;whiteSpace=wrap;html=1;" vertex="1" parent="1">
          <mxGeometry x="747" y="-455" width="80" height="30" as="geometry" />
        </mxCell>
        <mxCell id="lNNQF_8TXbGnCq8DfVAC-15" value="" style="endArrow=classic;html=1;exitX=1;exitY=0.5;exitDx=0;exitDy=0;entryX=0;entryY=0.5;entryDx=0;entryDy=0;" edge="1" parent="1" target="lNNQF_8TXbGnCq8DfVAC-14">
          <mxGeometry width="50" height="50" relative="1" as="geometry">
            <mxPoint x="638" y="-440" as="sourcePoint" />
            <mxPoint x="707" y="-390" as="targetPoint" />
          </mxGeometry>
        </mxCell>
        <mxCell id="lNNQF_8TXbGnCq8DfVAC-16" value="host" style="edgeLabel;html=1;align=center;verticalAlign=middle;resizable=0;points=[];" vertex="1" connectable="0" parent="lNNQF_8TXbGnCq8DfVAC-15">
          <mxGeometry x="-0.536" y="2" relative="1" as="geometry">
            <mxPoint x="3" as="offset" />
          </mxGeometry>
        </mxCell>
        <mxCell id="lNNQF_8TXbGnCq8DfVAC-17" value="request_queue" style="rounded=0;whiteSpace=wrap;html=1;" vertex="1" parent="1">
          <mxGeometry x="747" y="-417" width="80" height="30" as="geometry" />
        </mxCell>
        <mxCell id="lNNQF_8TXbGnCq8DfVAC-18" value="" style="endArrow=classic;html=1;" edge="1" parent="1" target="lNNQF_8TXbGnCq8DfVAC-17">
          <mxGeometry width="50" height="50" relative="1" as="geometry">
            <mxPoint x="637" y="-402" as="sourcePoint" />
            <mxPoint x="727" y="-427" as="targetPoint" />
          </mxGeometry>
        </mxCell>
        <mxCell id="lNNQF_8TXbGnCq8DfVAC-19" value="cmd_queue" style="edgeLabel;html=1;align=center;verticalAlign=middle;resizable=0;points=[];" vertex="1" connectable="0" parent="lNNQF_8TXbGnCq8DfVAC-18">
          <mxGeometry x="-0.408" y="1" relative="1" as="geometry">
            <mxPoint x="5" y="-9" as="offset" />
          </mxGeometry>
        </mxCell>
        <mxCell id="lNNQF_8TXbGnCq8DfVAC-26" value="tmf_queue" style="edgeLabel;html=1;align=center;verticalAlign=middle;resizable=0;points=[];" vertex="1" connectable="0" parent="lNNQF_8TXbGnCq8DfVAC-18">
          <mxGeometry x="0.2126" y="2" relative="1" as="geometry">
            <mxPoint x="-30" y="11" as="offset" />
          </mxGeometry>
        </mxCell>
        <mxCell id="lNNQF_8TXbGnCq8DfVAC-20" value="scsi_device" style="rounded=0;whiteSpace=wrap;html=1;" vertex="1" parent="1">
          <mxGeometry x="747" y="-493" width="80" height="30" as="geometry" />
        </mxCell>
        <mxCell id="lNNQF_8TXbGnCq8DfVAC-23" value="ufshcd_lrb" style="rounded=0;whiteSpace=wrap;html=1;" vertex="1" parent="1">
          <mxGeometry x="227" y="-597" width="160" height="41" as="geometry" />
        </mxCell>
        <mxCell id="lNNQF_8TXbGnCq8DfVAC-27" value="ufs_hba" style="text;html=1;strokeColor=none;fillColor=none;align=center;verticalAlign=middle;whiteSpace=wrap;rounded=0;" vertex="1" parent="1">
          <mxGeometry x="558.5" y="-560" width="59" height="20" as="geometry" />
        </mxCell>
        <mxCell id="lNNQF_8TXbGnCq8DfVAC-28" value="blk_mq_tag_set" style="rounded=0;whiteSpace=wrap;html=1;" vertex="1" parent="1">
          <mxGeometry x="544" y="-506" width="89" height="50" as="geometry" />
        </mxCell>
        <mxCell id="lNNQF_8TXbGnCq8DfVAC-30" value="uic_command" style="rounded=0;whiteSpace=wrap;html=1;" vertex="1" parent="1">
          <mxGeometry x="747" y="-534" width="80" height="30" as="geometry" />
        </mxCell>
        <mxCell id="lNNQF_8TXbGnCq8DfVAC-31" value="" style="endArrow=classic;html=1;entryX=0.009;entryY=0.638;entryDx=0;entryDy=0;entryPerimeter=0;exitX=0.997;exitY=0.114;exitDx=0;exitDy=0;exitPerimeter=0;" edge="1" parent="1" target="lNNQF_8TXbGnCq8DfVAC-30">
          <mxGeometry width="50" height="50" relative="1" as="geometry">
            <mxPoint x="637.7" y="-515.04" as="sourcePoint" />
            <mxPoint x="597" y="-313" as="targetPoint" />
          </mxGeometry>
        </mxCell>
        <mxCell id="lNNQF_8TXbGnCq8DfVAC-34" value="active_uic_cmd" style="edgeLabel;html=1;align=center;verticalAlign=middle;resizable=0;points=[];" vertex="1" connectable="0" parent="lNNQF_8TXbGnCq8DfVAC-31">
          <mxGeometry x="-0.5907" relative="1" as="geometry">
            <mxPoint x="27" y="-9" as="offset" />
          </mxGeometry>
        </mxCell>
        <mxCell id="lNNQF_8TXbGnCq8DfVAC-37" value="" style="edgeStyle=elbowEdgeStyle;elbow=vertical;endArrow=classic;html=1;entryX=1;entryY=0.5;entryDx=0;entryDy=0;exitX=0.087;exitY=0.007;exitDx=0;exitDy=0;exitPerimeter=0;" edge="1" parent="1" source="lNNQF_8TXbGnCq8DfVAC-1" target="lNNQF_8TXbGnCq8DfVAC-23">
          <mxGeometry width="50" height="50" relative="1" as="geometry">
            <mxPoint x="547" y="-540" as="sourcePoint" />
            <mxPoint x="587" y="-680" as="targetPoint" />
            <Array as="points">
              <mxPoint x="467" y="-576" />
            </Array>
          </mxGeometry>
        </mxCell>
        <mxCell id="lNNQF_8TXbGnCq8DfVAC-38" value="lrb" style="edgeLabel;html=1;align=center;verticalAlign=middle;resizable=0;points=[];" vertex="1" connectable="0" parent="lNNQF_8TXbGnCq8DfVAC-37">
          <mxGeometry x="-0.6749" relative="1" as="geometry">
            <mxPoint as="offset" />
          </mxGeometry>
        </mxCell>
        <mxCell id="lNNQF_8TXbGnCq8DfVAC-52" value="ufs_qcom_host" style="rounded=0;whiteSpace=wrap;html=1;" vertex="1" parent="1">
          <mxGeometry x="555" y="-350" width="110" height="30" as="geometry" />
        </mxCell>
        <mxCell id="lNNQF_8TXbGnCq8DfVAC-53" value="" style="endArrow=classic;html=1;exitX=0.5;exitY=1;exitDx=0;exitDy=0;" edge="1" parent="1" target="lNNQF_8TXbGnCq8DfVAC-52">
          <mxGeometry width="50" height="50" relative="1" as="geometry">
            <mxPoint x="610" y="-396" as="sourcePoint" />
            <mxPoint x="509" y="-360" as="targetPoint" />
          </mxGeometry>
        </mxCell>
        <mxCell id="lNNQF_8TXbGnCq8DfVAC-54" value="priv" style="edgeLabel;html=1;align=center;verticalAlign=middle;resizable=0;points=[];" vertex="1" connectable="0" parent="lNNQF_8TXbGnCq8DfVAC-53">
          <mxGeometry x="-0.3043" y="2" relative="1" as="geometry">
            <mxPoint as="offset" />
          </mxGeometry>
        </mxCell>
        <mxCell id="lNNQF_8TXbGnCq8DfVAC-55" value="" style="endArrow=classic;html=1;entryX=0.25;entryY=1;entryDx=0;entryDy=0;" edge="1" parent="1">
          <mxGeometry width="50" height="50" relative="1" as="geometry">
            <mxPoint x="585" y="-351" as="sourcePoint" />
            <mxPoint x="585" y="-396" as="targetPoint" />
          </mxGeometry>
        </mxCell>
        <mxCell id="lNNQF_8TXbGnCq8DfVAC-56" value="hba" style="edgeLabel;html=1;align=center;verticalAlign=middle;resizable=0;points=[];" vertex="1" connectable="0" parent="lNNQF_8TXbGnCq8DfVAC-55">
          <mxGeometry x="-0.6356" relative="1" as="geometry">
            <mxPoint x="-1" y="-11" as="offset" />
          </mxGeometry>
        </mxCell>
        <mxCell id="lNNQF_8TXbGnCq8DfVAC-57" value="&lt;font color=&quot;#3333ff&quot;&gt;utp_task_req_desc&lt;/font&gt;" style="text;html=1;strokeColor=none;fillColor=none;align=center;verticalAlign=middle;whiteSpace=wrap;rounded=0;" vertex="1" parent="1">
          <mxGeometry x="243.5" y="-172" width="83" height="20" as="geometry" />
        </mxCell>
        <mxCell id="lNNQF_8TXbGnCq8DfVAC-58" value="&lt;span style=&quot;font-family: &amp;#34;helvetica&amp;#34; ; font-size: 12px ; font-style: normal ; font-weight: 400 ; letter-spacing: normal ; text-align: center ; text-indent: 0px ; text-transform: none ; word-spacing: 0px ; background-color: rgb(248 , 249 , 250) ; display: inline ; float: none&quot;&gt;&lt;font color=&quot;#ff33ff&quot;&gt;utp_transfer_cmd_desc&lt;/font&gt;&lt;/span&gt;" style="text;whiteSpace=wrap;html=1;" vertex="1" parent="1">
          <mxGeometry x="235" y="-417" width="130" height="20" as="geometry" />
        </mxCell>
        <mxCell id="lNNQF_8TXbGnCq8DfVAC-59" value="&lt;span style=&quot;font-family: &amp;#34;helvetica&amp;#34; ; font-size: 12px ; font-style: normal ; font-weight: 400 ; letter-spacing: normal ; text-align: center ; text-indent: 0px ; text-transform: none ; word-spacing: 0px ; background-color: rgb(248 , 249 , 250) ; display: inline ; float: none&quot;&gt;&lt;font color=&quot;#ff3333&quot;&gt;utp_transfer_req_desc&lt;/font&gt;&lt;/span&gt;" style="text;whiteSpace=wrap;html=1;" vertex="1" parent="1">
          <mxGeometry x="237" y="-550" width="120" height="20" as="geometry" />
        </mxCell>
        <mxCell id="lNNQF_8TXbGnCq8DfVAC-60" value="command_upiu[512]" style="rounded=0;whiteSpace=wrap;html=1;" vertex="1" parent="1">
          <mxGeometry x="215" y="-394" width="160" height="14" as="geometry" />
        </mxCell>
        <mxCell id="lNNQF_8TXbGnCq8DfVAC-61" value="response_upiu[[512]" style="rounded=0;whiteSpace=wrap;html=1;" vertex="1" parent="1">
          <mxGeometry x="215" y="-380" width="160" height="17" as="geometry" />
        </mxCell>
        <mxCell id="lNNQF_8TXbGnCq8DfVAC-62" value="ufshcd_sg_entry&amp;nbsp; &amp;nbsp; prd_table[SG_ALL]" style="rounded=0;whiteSpace=wrap;html=1;" vertex="1" parent="1">
          <mxGeometry x="215" y="-363" width="160" height="27" as="geometry" />
        </mxCell>
        <mxCell id="lNNQF_8TXbGnCq8DfVAC-64" value="request_desc_header" style="rounded=0;whiteSpace=wrap;html=1;" vertex="1" parent="1">
          <mxGeometry x="217" y="-530" width="160" height="20" as="geometry" />
        </mxCell>
        <mxCell id="lNNQF_8TXbGnCq8DfVAC-65" value="request_desc_header" style="rounded=0;whiteSpace=wrap;html=1;" vertex="1" parent="1">
          <mxGeometry x="208" y="-150" width="160" height="20" as="geometry" />
        </mxCell>
        <mxCell id="lNNQF_8TXbGnCq8DfVAC-66" value="utp_upiu_header req_header" style="rounded=0;whiteSpace=wrap;html=1;" vertex="1" parent="1">
          <mxGeometry x="208" y="-130" width="160" height="23" as="geometry" />
        </mxCell>
        <mxCell id="lNNQF_8TXbGnCq8DfVAC-67" value="utp_upiu_header&amp;nbsp; rsp_header" style="rounded=0;whiteSpace=wrap;html=1;" vertex="1" parent="1">
          <mxGeometry x="208" y="-107" width="160" height="26" as="geometry" />
        </mxCell>
        <mxCell id="lNNQF_8TXbGnCq8DfVAC-70" value="utmrdl_dma_addr" style="text;whiteSpace=wrap;html=1;" vertex="1" parent="1">
          <mxGeometry x="395" y="-155" width="94" height="20" as="geometry" />
        </mxCell>
        <mxCell id="lNNQF_8TXbGnCq8DfVAC-73" value="ucdl_dma_addr" style="text;whiteSpace=wrap;html=1;" vertex="1" parent="1">
          <mxGeometry x="402" y="-403.5" width="84" height="16.5" as="geometry" />
        </mxCell>
        <mxCell id="lNNQF_8TXbGnCq8DfVAC-77" value="" style="rounded=0;whiteSpace=wrap;html=1;" vertex="1" parent="1">
          <mxGeometry x="217" y="-499" width="170" height="30" as="geometry" />
        </mxCell>
        <mxCell id="lNNQF_8TXbGnCq8DfVAC-78" value="request_desc_header" style="rounded=0;whiteSpace=wrap;html=1;" vertex="1" parent="1">
          <mxGeometry x="217" y="-499" width="160" height="20" as="geometry" />
        </mxCell>
        <mxCell id="lNNQF_8TXbGnCq8DfVAC-81" value="......" style="text;html=1;align=center;verticalAlign=middle;resizable=0;points=[];autosize=1;strokeColor=none;" vertex="1" parent="1">
          <mxGeometry x="267" y="-470" width="40" height="20" as="geometry" />
        </mxCell>
        <mxCell id="lNNQF_8TXbGnCq8DfVAC-84" value="" style="rounded=0;whiteSpace=wrap;html=1;" vertex="1" parent="1">
          <mxGeometry x="215" y="-450" width="170" height="30" as="geometry" />
        </mxCell>
        <mxCell id="lNNQF_8TXbGnCq8DfVAC-85" value="request_desc_header" style="rounded=0;whiteSpace=wrap;html=1;" vertex="1" parent="1">
          <mxGeometry x="215" y="-450" width="160" height="20" as="geometry" />
        </mxCell>
        <mxCell id="lNNQF_8TXbGnCq8DfVAC-87" value="" style="rounded=0;whiteSpace=wrap;html=1;" vertex="1" parent="1">
          <mxGeometry x="215" y="-330" width="170" height="64" as="geometry" />
        </mxCell>
        <mxCell id="lNNQF_8TXbGnCq8DfVAC-88" value="command_upiu[512]" style="rounded=0;whiteSpace=wrap;html=1;" vertex="1" parent="1">
          <mxGeometry x="215" y="-330" width="160" height="14" as="geometry" />
        </mxCell>
        <mxCell id="lNNQF_8TXbGnCq8DfVAC-89" value="response_upiu[[512]" style="rounded=0;whiteSpace=wrap;html=1;" vertex="1" parent="1">
          <mxGeometry x="215" y="-316" width="160" height="17" as="geometry" />
        </mxCell>
        <mxCell id="lNNQF_8TXbGnCq8DfVAC-90" value="ufshcd_sg_entry&amp;nbsp; &amp;nbsp; prd_table[SG_ALL]" style="rounded=0;whiteSpace=wrap;html=1;" vertex="1" parent="1">
          <mxGeometry x="215" y="-299" width="160" height="27" as="geometry" />
        </mxCell>
        <mxCell id="lNNQF_8TXbGnCq8DfVAC-91" value="......" style="text;html=1;align=center;verticalAlign=middle;resizable=0;points=[];autosize=1;strokeColor=none;" vertex="1" parent="1">
          <mxGeometry x="272" y="-272" width="40" height="20" as="geometry" />
        </mxCell>
        <mxCell id="lNNQF_8TXbGnCq8DfVAC-92" value="" style="rounded=0;whiteSpace=wrap;html=1;" vertex="1" parent="1">
          <mxGeometry x="212" y="-252" width="170" height="64" as="geometry" />
        </mxCell>
        <mxCell id="lNNQF_8TXbGnCq8DfVAC-93" value="command_upiu[512]" style="rounded=0;whiteSpace=wrap;html=1;" vertex="1" parent="1">
          <mxGeometry x="212" y="-252" width="160" height="14" as="geometry" />
        </mxCell>
        <mxCell id="lNNQF_8TXbGnCq8DfVAC-94" value="response_upiu[[512]" style="rounded=0;whiteSpace=wrap;html=1;" vertex="1" parent="1">
          <mxGeometry x="212" y="-238" width="160" height="17" as="geometry" />
        </mxCell>
        <mxCell id="lNNQF_8TXbGnCq8DfVAC-95" value="ufshcd_sg_entry&amp;nbsp; &amp;nbsp; prd_table[SG_ALL]" style="rounded=0;whiteSpace=wrap;html=1;" vertex="1" parent="1">
          <mxGeometry x="212" y="-221" width="160" height="27" as="geometry" />
        </mxCell>
        <mxCell id="lNNQF_8TXbGnCq8DfVAC-97" value="" style="edgeStyle=elbowEdgeStyle;elbow=horizontal;endArrow=classic;html=1;exitX=0;exitY=0;exitDx=0;exitDy=0;entryX=0;entryY=0;entryDx=0;entryDy=0;strokeColor=#FF33FF;strokeWidth=2;" edge="1" parent="1" source="lNNQF_8TXbGnCq8DfVAC-64" target="lNNQF_8TXbGnCq8DfVAC-60">
          <mxGeometry width="50" height="50" relative="1" as="geometry">
            <mxPoint x="37" y="-290" as="sourcePoint" />
            <mxPoint x="57" y="-330" as="targetPoint" />
            <Array as="points">
              <mxPoint x="190" y="-460" />
            </Array>
          </mxGeometry>
        </mxCell>
        <mxCell id="lNNQF_8TXbGnCq8DfVAC-99" value="" style="edgeStyle=elbowEdgeStyle;elbow=horizontal;endArrow=classic;html=1;exitX=0;exitY=1;exitDx=0;exitDy=0;entryX=0.012;entryY=0;entryDx=0;entryDy=0;entryPerimeter=0;strokeColor=#FF33FF;strokeWidth=2;" edge="1" parent="1" source="lNNQF_8TXbGnCq8DfVAC-2" target="lNNQF_8TXbGnCq8DfVAC-88">
          <mxGeometry width="50" height="50" relative="1" as="geometry">
            <mxPoint x="227.00000000000023" y="-520" as="sourcePoint" />
            <mxPoint x="110" y="-310" as="targetPoint" />
            <Array as="points">
              <mxPoint x="170" y="-420" />
            </Array>
          </mxGeometry>
        </mxCell>
        <mxCell id="lNNQF_8TXbGnCq8DfVAC-100" value="" style="edgeStyle=elbowEdgeStyle;elbow=horizontal;endArrow=classic;html=1;exitX=0;exitY=0;exitDx=0;exitDy=0;entryX=0.019;entryY=0.143;entryDx=0;entryDy=0;entryPerimeter=0;strokeColor=#FF33FF;strokeWidth=2;" edge="1" parent="1" source="lNNQF_8TXbGnCq8DfVAC-85" target="lNNQF_8TXbGnCq8DfVAC-93">
          <mxGeometry width="50" height="50" relative="1" as="geometry">
            <mxPoint x="147" y="-472" as="sourcePoint" />
            <mxPoint x="146.92000000000007" y="-302" as="targetPoint" />
            <Array as="points">
              <mxPoint x="140" y="-350" />
            </Array>
          </mxGeometry>
        </mxCell>
        <mxCell id="lNNQF_8TXbGnCq8DfVAC-104" value="&lt;font color=&quot;#ff33ff&quot;&gt;command_desc_base_addr(dma)&lt;/font&gt;" style="text;whiteSpace=wrap;html=1;" vertex="1" parent="1">
          <mxGeometry x="38" y="-420" width="170" height="30" as="geometry" />
        </mxCell>
        <mxCell id="lNNQF_8TXbGnCq8DfVAC-105" value="" style="rounded=0;whiteSpace=wrap;html=1;" vertex="1" parent="1">
          <mxGeometry x="208" y="-70" width="170" height="80" as="geometry" />
        </mxCell>
        <mxCell id="lNNQF_8TXbGnCq8DfVAC-106" value="request_desc_header" style="rounded=0;whiteSpace=wrap;html=1;" vertex="1" parent="1">
          <mxGeometry x="208" y="-70" width="160" height="20" as="geometry" />
        </mxCell>
        <mxCell id="lNNQF_8TXbGnCq8DfVAC-107" value="utp_upiu_header req_header" style="rounded=0;whiteSpace=wrap;html=1;" vertex="1" parent="1">
          <mxGeometry x="208" y="-50" width="160" height="23" as="geometry" />
        </mxCell>
        <mxCell id="lNNQF_8TXbGnCq8DfVAC-108" value="utp_upiu_header&amp;nbsp; rsp_header" style="rounded=0;whiteSpace=wrap;html=1;" vertex="1" parent="1">
          <mxGeometry x="208" y="-27" width="160" height="26" as="geometry" />
        </mxCell>
        <mxCell id="lNNQF_8TXbGnCq8DfVAC-109" value="" style="rounded=0;whiteSpace=wrap;html=1;" vertex="1" parent="1">
          <mxGeometry x="207" y="30" width="170" height="80" as="geometry" />
        </mxCell>
        <mxCell id="lNNQF_8TXbGnCq8DfVAC-110" value="request_desc_header" style="rounded=0;whiteSpace=wrap;html=1;" vertex="1" parent="1">
          <mxGeometry x="207" y="30" width="160" height="20" as="geometry" />
        </mxCell>
        <mxCell id="lNNQF_8TXbGnCq8DfVAC-111" value="utp_upiu_header req_header" style="rounded=0;whiteSpace=wrap;html=1;" vertex="1" parent="1">
          <mxGeometry x="207" y="50" width="160" height="23" as="geometry" />
        </mxCell>
        <mxCell id="lNNQF_8TXbGnCq8DfVAC-112" value="utp_upiu_header&amp;nbsp; rsp_header" style="rounded=0;whiteSpace=wrap;html=1;" vertex="1" parent="1">
          <mxGeometry x="207" y="73" width="160" height="26" as="geometry" />
        </mxCell>
        <mxCell id="lNNQF_8TXbGnCq8DfVAC-113" value="......" style="text;html=1;align=center;verticalAlign=middle;resizable=0;points=[];autosize=1;strokeColor=none;" vertex="1" parent="1">
          <mxGeometry x="265" y="10" width="40" height="20" as="geometry" />
        </mxCell>
        <mxCell id="lNNQF_8TXbGnCq8DfVAC-115" value="32个" style="text;html=1;strokeColor=none;fillColor=none;align=center;verticalAlign=middle;whiteSpace=wrap;rounded=0;" vertex="1" parent="1">
          <mxGeometry x="389" y="-488" width="40" height="20" as="geometry" />
        </mxCell>
        <mxCell id="lNNQF_8TXbGnCq8DfVAC-116" value="32个" style="text;html=1;strokeColor=none;fillColor=none;align=center;verticalAlign=middle;whiteSpace=wrap;rounded=0;" vertex="1" parent="1">
          <mxGeometry x="390" y="-308" width="40" height="20" as="geometry" />
        </mxCell>
        <mxCell id="lNNQF_8TXbGnCq8DfVAC-117" value="8个" style="text;html=1;strokeColor=none;fillColor=none;align=center;verticalAlign=middle;whiteSpace=wrap;rounded=0;" vertex="1" parent="1">
          <mxGeometry x="385" y="-50" width="40" height="20" as="geometry" />
        </mxCell>
        <mxCell id="lNNQF_8TXbGnCq8DfVAC-118" value="" style="edgeStyle=elbowEdgeStyle;elbow=horizontal;endArrow=classic;html=1;exitX=0;exitY=0.5;exitDx=0;exitDy=0;strokeColor=#FF3333;strokeWidth=2;" edge="1" parent="1" source="lNNQF_8TXbGnCq8DfVAC-23">
          <mxGeometry width="50" height="50" relative="1" as="geometry">
            <mxPoint x="136.50000000000023" y="-618" as="sourcePoint" />
            <mxPoint x="210" y="-470" as="targetPoint" />
            <Array as="points">
              <mxPoint x="140" y="-520" />
            </Array>
          </mxGeometry>
        </mxCell>
        <mxCell id="lNNQF_8TXbGnCq8DfVAC-119" value="&lt;font color=&quot;#ff3333&quot;&gt;utr_descriptor_ptr&lt;/font&gt;" style="edgeLabel;html=1;align=center;verticalAlign=middle;resizable=0;points=[];" vertex="1" connectable="0" parent="lNNQF_8TXbGnCq8DfVAC-118">
          <mxGeometry x="-0.093" y="-2" relative="1" as="geometry">
            <mxPoint as="offset" />
          </mxGeometry>
        </mxCell>
      </root>
    </mxGraphModel>
  </diagram>
</mxfile>
